<mxfile host="app.diagrams.net" modified="2024-03-25T09:16:54.296Z" agent="Mozilla/5.0 (Macintosh; Intel Mac OS X 10_15_7) AppleWebKit/537.36 (KHTML, like Gecko) Chrome/122.0.0.0 Safari/537.36" etag="H_Oip8_tq-wvKNRu1EwN" version="24.1.0" type="github">
  <diagram name="第 1 页" id="F7tv5th9oDEds87pdlls">
    <mxGraphModel dx="707" dy="412" grid="1" gridSize="10" guides="1" tooltips="1" connect="1" arrows="1" fold="1" page="1" pageScale="1" pageWidth="1169" pageHeight="1654" math="0" shadow="0">
      <root>
        <mxCell id="0" />
        <mxCell id="1" parent="0" />
        <mxCell id="p-WHjfo-FLwnzaZ-aeNB-7" value="" style="edgeStyle=orthogonalEdgeStyle;rounded=0;orthogonalLoop=1;jettySize=auto;html=1;" edge="1" parent="1" source="p-WHjfo-FLwnzaZ-aeNB-1" target="p-WHjfo-FLwnzaZ-aeNB-2">
          <mxGeometry relative="1" as="geometry" />
        </mxCell>
        <mxCell id="p-WHjfo-FLwnzaZ-aeNB-1" value="活动告警" style="ellipse;whiteSpace=wrap;html=1;" vertex="1" parent="1">
          <mxGeometry x="305" y="100" width="110" height="60" as="geometry" />
        </mxCell>
        <mxCell id="p-WHjfo-FLwnzaZ-aeNB-8" value="" style="edgeStyle=orthogonalEdgeStyle;rounded=0;orthogonalLoop=1;jettySize=auto;html=1;" edge="1" parent="1" source="p-WHjfo-FLwnzaZ-aeNB-2" target="p-WHjfo-FLwnzaZ-aeNB-3">
          <mxGeometry relative="1" as="geometry" />
        </mxCell>
        <mxCell id="p-WHjfo-FLwnzaZ-aeNB-12" value="告警分派" style="edgeLabel;html=1;align=center;verticalAlign=middle;resizable=0;points=[];" vertex="1" connectable="0" parent="p-WHjfo-FLwnzaZ-aeNB-8">
          <mxGeometry x="-0.2" y="4" relative="1" as="geometry">
            <mxPoint as="offset" />
          </mxGeometry>
        </mxCell>
        <mxCell id="p-WHjfo-FLwnzaZ-aeNB-23" style="edgeStyle=orthogonalEdgeStyle;rounded=0;orthogonalLoop=1;jettySize=auto;html=1;entryX=1;entryY=0.5;entryDx=0;entryDy=0;" edge="1" parent="1" source="p-WHjfo-FLwnzaZ-aeNB-2" target="p-WHjfo-FLwnzaZ-aeNB-4">
          <mxGeometry relative="1" as="geometry">
            <Array as="points">
              <mxPoint x="450" y="220" />
              <mxPoint x="450" y="380" />
            </Array>
          </mxGeometry>
        </mxCell>
        <mxCell id="p-WHjfo-FLwnzaZ-aeNB-24" value="人工认领" style="edgeLabel;html=1;align=center;verticalAlign=middle;resizable=0;points=[];" vertex="1" connectable="0" parent="p-WHjfo-FLwnzaZ-aeNB-23">
          <mxGeometry x="0.02" y="-1" relative="1" as="geometry">
            <mxPoint as="offset" />
          </mxGeometry>
        </mxCell>
        <mxCell id="p-WHjfo-FLwnzaZ-aeNB-2" value="未分派" style="rounded=1;whiteSpace=wrap;html=1;arcSize=10;" vertex="1" parent="1">
          <mxGeometry x="310" y="200" width="100" height="40" as="geometry" />
        </mxCell>
        <mxCell id="p-WHjfo-FLwnzaZ-aeNB-9" value="" style="edgeStyle=orthogonalEdgeStyle;rounded=0;orthogonalLoop=1;jettySize=auto;html=1;" edge="1" parent="1" source="p-WHjfo-FLwnzaZ-aeNB-3" target="p-WHjfo-FLwnzaZ-aeNB-4">
          <mxGeometry relative="1" as="geometry" />
        </mxCell>
        <mxCell id="p-WHjfo-FLwnzaZ-aeNB-13" value="告警认领" style="edgeLabel;html=1;align=center;verticalAlign=middle;resizable=0;points=[];" vertex="1" connectable="0" parent="p-WHjfo-FLwnzaZ-aeNB-9">
          <mxGeometry x="-0.2" relative="1" as="geometry">
            <mxPoint as="offset" />
          </mxGeometry>
        </mxCell>
        <mxCell id="p-WHjfo-FLwnzaZ-aeNB-3" value="待响应" style="rounded=1;whiteSpace=wrap;html=1;" vertex="1" parent="1">
          <mxGeometry x="310" y="280" width="100" height="40" as="geometry" />
        </mxCell>
        <mxCell id="p-WHjfo-FLwnzaZ-aeNB-10" value="" style="edgeStyle=orthogonalEdgeStyle;rounded=0;orthogonalLoop=1;jettySize=auto;html=1;" edge="1" parent="1" source="p-WHjfo-FLwnzaZ-aeNB-4" target="p-WHjfo-FLwnzaZ-aeNB-5">
          <mxGeometry relative="1" as="geometry" />
        </mxCell>
        <mxCell id="p-WHjfo-FLwnzaZ-aeNB-14" value="告警恢复" style="edgeLabel;html=1;align=center;verticalAlign=middle;resizable=0;points=[];" vertex="1" connectable="0" parent="p-WHjfo-FLwnzaZ-aeNB-10">
          <mxGeometry x="-0.3" y="-2" relative="1" as="geometry">
            <mxPoint as="offset" />
          </mxGeometry>
        </mxCell>
        <mxCell id="p-WHjfo-FLwnzaZ-aeNB-17" style="edgeStyle=orthogonalEdgeStyle;rounded=0;orthogonalLoop=1;jettySize=auto;html=1;" edge="1" parent="1" source="p-WHjfo-FLwnzaZ-aeNB-4" target="p-WHjfo-FLwnzaZ-aeNB-16">
          <mxGeometry relative="1" as="geometry" />
        </mxCell>
        <mxCell id="p-WHjfo-FLwnzaZ-aeNB-18" value="告警关闭" style="edgeLabel;html=1;align=center;verticalAlign=middle;resizable=0;points=[];" vertex="1" connectable="0" parent="p-WHjfo-FLwnzaZ-aeNB-17">
          <mxGeometry x="-0.2" y="-2" relative="1" as="geometry">
            <mxPoint as="offset" />
          </mxGeometry>
        </mxCell>
        <mxCell id="p-WHjfo-FLwnzaZ-aeNB-4" value="处理中" style="rounded=1;whiteSpace=wrap;html=1;" vertex="1" parent="1">
          <mxGeometry x="310" y="360" width="100" height="40" as="geometry" />
        </mxCell>
        <mxCell id="p-WHjfo-FLwnzaZ-aeNB-11" value="" style="edgeStyle=orthogonalEdgeStyle;rounded=0;orthogonalLoop=1;jettySize=auto;html=1;" edge="1" parent="1" source="p-WHjfo-FLwnzaZ-aeNB-5" target="p-WHjfo-FLwnzaZ-aeNB-6">
          <mxGeometry relative="1" as="geometry" />
        </mxCell>
        <mxCell id="p-WHjfo-FLwnzaZ-aeNB-15" value="告警归档" style="edgeLabel;html=1;align=center;verticalAlign=middle;resizable=0;points=[];" vertex="1" connectable="0" parent="p-WHjfo-FLwnzaZ-aeNB-11">
          <mxGeometry x="-0.3" y="-1" relative="1" as="geometry">
            <mxPoint as="offset" />
          </mxGeometry>
        </mxCell>
        <mxCell id="p-WHjfo-FLwnzaZ-aeNB-5" value="已恢复" style="rounded=1;whiteSpace=wrap;html=1;" vertex="1" parent="1">
          <mxGeometry x="310" y="440" width="100" height="40" as="geometry" />
        </mxCell>
        <mxCell id="p-WHjfo-FLwnzaZ-aeNB-6" value="已归档" style="rounded=1;whiteSpace=wrap;html=1;" vertex="1" parent="1">
          <mxGeometry x="310" y="520" width="100" height="40" as="geometry" />
        </mxCell>
        <mxCell id="p-WHjfo-FLwnzaZ-aeNB-19" style="edgeStyle=orthogonalEdgeStyle;rounded=0;orthogonalLoop=1;jettySize=auto;html=1;entryX=0;entryY=0.5;entryDx=0;entryDy=0;" edge="1" parent="1" source="p-WHjfo-FLwnzaZ-aeNB-16" target="p-WHjfo-FLwnzaZ-aeNB-6">
          <mxGeometry relative="1" as="geometry">
            <Array as="points">
              <mxPoint x="200" y="540" />
            </Array>
          </mxGeometry>
        </mxCell>
        <mxCell id="p-WHjfo-FLwnzaZ-aeNB-20" value="告警归档" style="edgeLabel;html=1;align=center;verticalAlign=middle;resizable=0;points=[];" vertex="1" connectable="0" parent="p-WHjfo-FLwnzaZ-aeNB-19">
          <mxGeometry x="0.1059" y="2" relative="1" as="geometry">
            <mxPoint as="offset" />
          </mxGeometry>
        </mxCell>
        <mxCell id="p-WHjfo-FLwnzaZ-aeNB-16" value="已关闭" style="rounded=1;whiteSpace=wrap;html=1;" vertex="1" parent="1">
          <mxGeometry x="150" y="440" width="100" height="40" as="geometry" />
        </mxCell>
        <mxCell id="p-WHjfo-FLwnzaZ-aeNB-21" value="" style="curved=1;endArrow=classic;html=1;rounded=0;exitX=0;exitY=0.75;exitDx=0;exitDy=0;entryX=0.1;entryY=0;entryDx=0;entryDy=0;entryPerimeter=0;" edge="1" parent="1" target="p-WHjfo-FLwnzaZ-aeNB-3">
          <mxGeometry width="50" height="50" relative="1" as="geometry">
            <mxPoint x="310" y="300" as="sourcePoint" />
            <mxPoint x="310" y="270" as="targetPoint" />
            <Array as="points">
              <mxPoint x="290" y="300" />
              <mxPoint x="270" y="290" />
              <mxPoint x="260" y="270" />
              <mxPoint x="290" y="250" />
            </Array>
          </mxGeometry>
        </mxCell>
        <mxCell id="p-WHjfo-FLwnzaZ-aeNB-22" value="告警转派/升级" style="edgeLabel;html=1;align=center;verticalAlign=middle;resizable=0;points=[];" vertex="1" connectable="0" parent="p-WHjfo-FLwnzaZ-aeNB-21">
          <mxGeometry x="0.181" y="-3" relative="1" as="geometry">
            <mxPoint as="offset" />
          </mxGeometry>
        </mxCell>
        <mxCell id="p-WHjfo-FLwnzaZ-aeNB-25" value="" style="endArrow=none;html=1;rounded=0;" edge="1" parent="1">
          <mxGeometry width="50" height="50" relative="1" as="geometry">
            <mxPoint x="410" y="210" as="sourcePoint" />
            <mxPoint x="490" y="210" as="targetPoint" />
          </mxGeometry>
        </mxCell>
        <mxCell id="p-WHjfo-FLwnzaZ-aeNB-27" value="" style="endArrow=none;html=1;rounded=0;" edge="1" parent="1">
          <mxGeometry width="50" height="50" relative="1" as="geometry">
            <mxPoint x="490" y="460" as="sourcePoint" />
            <mxPoint x="490" y="210" as="targetPoint" />
          </mxGeometry>
        </mxCell>
        <mxCell id="p-WHjfo-FLwnzaZ-aeNB-29" value="自动恢复" style="edgeLabel;html=1;align=center;verticalAlign=middle;resizable=0;points=[];" vertex="1" connectable="0" parent="p-WHjfo-FLwnzaZ-aeNB-27">
          <mxGeometry x="-0.2196" y="2" relative="1" as="geometry">
            <mxPoint as="offset" />
          </mxGeometry>
        </mxCell>
        <mxCell id="p-WHjfo-FLwnzaZ-aeNB-28" value="" style="endArrow=classic;html=1;rounded=0;" edge="1" parent="1">
          <mxGeometry width="50" height="50" relative="1" as="geometry">
            <mxPoint x="490" y="460" as="sourcePoint" />
            <mxPoint x="410" y="459.63" as="targetPoint" />
          </mxGeometry>
        </mxCell>
      </root>
    </mxGraphModel>
  </diagram>
</mxfile>
